<svg xmlns="http://www.w3.org/2000/svg" viewBox="0 0 724.68 455.85">
    <defs>
        <style>
            .cls-1{fill:#e6e6e6;}.cls-2{fill:#fff;}.cls-3{fill:#666;stroke:#fff;stroke-miterlimit:10;}
        </style>
    </defs>
    <title>
        RDC
    </title>
    <g id="base">
        <path d="M71.36,35.68v74L256,107.85l1.19,31L372.64,138l.85,44.59-115.92-3.4-1,11.06,3.24,9.37v27.57L253.15,229l-6.13,2.9-6.3,6.12-2.89,5.28-2.55,8v2.72h68.25l1,3.75,46,6.64,17.87,2.72,10.56,7L403.79,291l18.89,12.94,20.09,9.36,22.29,9.53,1.71,1.7-31.83,33.7-12.77,40.34,18.55,49.54,12.6,9.36L493.66,481l27.91,3.91,64.86,3.41L573.66,377.64l37.28,3.23,95.32,8.85,28.42,89,43.41-14.29-14.81-46.64,27.91-9.19-.34-1.53c-2.09-12.79-7.49-33.25-23-52.26-39.25-48.16-106.17-41.4-112.34-40.68l.68,31.83L631,342.91l-.17-33.36-36.94-.17-1.53-17.87-2-26,11.92-.34L589.15,209.3l-38.3,7.32-8.17-26.39,30.3-18-3.41-5.1-9.19-1.88,1.88-8.85-3.92-6.47-14.47-22.8-17.7,11.06-13.62-17.87.85-1.71L536.72,114,520.21,45.21,379.62,73.47l-92.43.85L286.51,33Z" class="cls-1" transform="translate(-66.51 -32.96)"/>
        <polygon points="0.51 190.13 1.79 328.51 44.68 328.51 42.89 190.13 0.51 190.13" class="cls-1"/>
        <polygon style="fill:#f8f8f8" points="432 83.15 324.25 104.34 325.27 149.79 432 174.04 434.04 140.85 426.13 122.21 440.42 114.3 432 83.15" class="cls-2"/>
        <polygon points="134.3 136 108 148.51 121.15 175.32 148.34 161.79 134.3 136" class="cls-1"/>
    </g>
    <g id="landmarks-salles">
        <polygon id="s_0" points="4.85 2.72 36.85 2.38 36.85 33.87 4.85 33.87 4.85 2.72" class="cls-3"/>
        <polygon id="s_1" points="55.06 2.38 36.85 2.38 36.85 33.87 55.06 33.19 55.06 2.38" class="cls-3"/>
        <polygon id="s_2" points="87.06 1.87 55.06 2.38 55.06 33.19 87.06 33.19 87.06 1.87" class="cls-3"/>
        <rect id="s_3" width="18.21" height="31.32" x="87.06" y="1.87" class="cls-3"/>
        <polygon id="s_4" points="137.62 1.36 105.28 1.87 105.28 33.19 138.47 32.51 137.62 1.36" class="cls-3"/>
        <polygon id="s_5" points="157.19 0.85 137.62 1.36 138.47 32.51 158.04 32.51 157.19 0.85" class="cls-3"/>
        <polygon id="s_6" points="189.7 0.51 157.19 0.85 158.04 32.51 189.7 32.51 189.7 0.51" class="cls-3"/>
        <polygon id="s_7" points="4.85 76.77 37.87 76.25 37.87 45.62 4.85 45.62 4.85 76.77" class="cls-3"/>
        <rect id="s_8" width="32" height="30.64" x="37.87" y="45.62" class="cls-3"/>
        <polygon id="s_9" points="83.15 54.13 69.87 45.62 69.87 76.25 83.15 75.97 83.15 54.13" class="cls-3"/>
        <polygon id="s_10" points="111.4 75.4 101.87 75.4 97.11 56.51 102.04 44.6 111.4 44.6 111.4 75.4" class="cls-3"/>
        <polygon id="s_11" points="142.89 44.6 111.4 44.6 111.4 75.4 142.89 75.37 142.89 44.6" class="cls-3"/>
        <polygon id="s_12" points="157.19 44.6 142.89 44.6 142.89 75.37 158.04 74.55 157.19 44.6" class="cls-3"/>
        <polygon id="s_13" points="188 44.6 157.19 44.6 158.04 74.55 188.68 74.55 188 44.6" class="cls-3"/>
        <polygon id="s_14" points="220.68 41.36 259.49 40.85 259.49 65.02 220.68 65.02 220.68 41.36" class="cls-3"/>
        <polygon id="s_15" points="268 41.19 268 64.51 305.96 64.51 305.96 40.58 268 41.19" class="cls-3"/>
        <rect id="s_16" width="25.53" height="30.81" x="216.42" y="74.55" class="cls-3"/>
        <polygon id="s_17" points="283.49 73.53 241.96 74.55 241.96 105.36 283.49 105.19 283.49 73.53" class="cls-3"/>
        <polygon id="s_18" points="313.11 40.51 354.43 32.2 360.76 57.19 318.89 66.38 313.11 40.51" class="cls-3"/>
        <polygon id="s_19" points="377.27 27.23 354.43 32.2 360.76 57.19 383.06 52.94 377.27 27.23" class="cls-3"/>
        <polygon id="s_20" points="421.53 18.72 377.27 27.23 383.06 52.94 426.64 43.74 421.53 18.72" class="cls-3"/>
        <polygon id="s_21" points="453.19 11.57 452.15 11.81 441.27 14.3 443.66 23.49 455.23 20.94 453.19 11.57" class="cls-3"/>
        <path id="s_22" d="M513.23,68.19c-1.84-.8-8.49-4-11.57-11.4a20.32,20.32,0,0,1-1.53-8l7.66-1.53Z" class="cls-3" transform="translate(-66.51 -32.96)"/>
        <polygon id="s_23" points="460 38.98 452.51 37.79 446.72 35.23 443.66 23.49 455.23 20.94 460 38.98" class="cls-3"/>
        <polygon id="s_24" points="325.02 79.32 345.96 74.55 351.57 99.06 330.13 103.15 325.02 79.32" class="cls-3"/>
        <polygon id="s_25" points="373.87 68.77 345.96 74.55 351.57 99.06 379.32 93.11 373.87 68.77" class="cls-3"/>
        <polygon id="s_26" points="382.34 67.4 419.83 59.06 428.51 64.51 433.62 82.04 387.15 91.4 382.34 67.4" class="cls-3"/>
        <polygon id="s_27" points="464.76 60.26 448.25 63.66 445.87 74.55 446.38 86.64 470.21 81.02 464.76 60.26" class="cls-3"/>
        <polygon id="s_28" points="477.36 94.13 459.66 105.19 463.74 117.62 483.83 105.19 477.36 94.13" class="cls-3"/>
        <polygon id="s_29" points="490.98 116.25 468.51 131.4 463.74 117.62 483.83 105.19 490.98 116.25" class="cls-3"/>
        <polygon id="s_30" points="493.87 132.25 472.76 146.04 468.51 131.4 490.98 116.25 495.74 123.4 493.87 132.25" class="cls-3"/>
        <polygon id="s_31" points="476.17 156.6 472.76 146.04 493.87 132.25 503.06 134.13 506.47 139.23 476.17 156.6" class="cls-3"/>
        <polygon id="s_32" points="440.42 114.3 426.13 122.21 434.04 140.85 430.89 173.79 415.57 170.72 402.13 215.49 409.79 218.38 437.7 219.4 455.23 216.68 462.21 208.17 467.15 195.4 464.59 180.94 462.21 155.75 457.11 142.3 440.42 114.3" class="cls-3"/>
        <polygon id="s_33" points="497.44 196.09 526.04 190.47 531.15 214.81 503.74 220.25 497.44 196.09" class="cls-3"/>
        <polygon id="s_34" points="492.85 222.13 531.15 214.81 534.38 226.72 506.47 227.66 494.89 229.96 492.85 222.13" class="cls-3"/>
        <path id="s_35"  d="M631,342.91c-2.19.15-15.58.79-26.38-9.53a35.62,35.62,0,0,1-10.73-24l36.94.17Z" class="cls-3" transform="translate(-66.51 -32.96)"/>
        <polygon id="s_36" points="485.02 365.96 457.27 432.68 454.21 451.4 519.91 455.32 509.7 367.49 485.02 365.96" class="cls-3"/>
        <path id="s_37" d="M498.26,367.09a45.05,45.05,0,0,1-6.3-26.9l-25.19-15.66-31.83,33.7-12.77,40.34,19.23,52.26,17.37-15.49Z" class="cls-3" transform="translate(-66.51 -32.96)"/>
        <polygon id="s_38" points="514.3 319.83 514.3 334.47 527.4 335.66 529.45 321.19 514.3 319.83" class="cls-3"/>
        <polygon id="s_39"  points="542.04 347.75 526.72 346.04 529.45 321.19 540.17 322.21 542.04 347.75" class="cls-3"/>
        <polygon id="s_40" points="558.89 324.25 555.15 348.43 572.34 350.47 568.25 325.11 558.89 324.25" class="cls-3"/>
        <polygon id="s_41" points="590.21 325.96 568.25 325.11 572.34 350.47 584.08 351.83 584.93 333.28 589.36 333.62 590.21 325.96" class="cls-3"/>
        <polygon id="s_42" points="599.57 334.47 584.93 333.28 584.08 351.83 599.57 353.04 599.57 334.47" class="cls-3"/>
        <polygon id="s_43" points="618.3 337.36 599.57 334.47 599.57 353.04 618.3 354.77 618.3 337.36" class="cls-3"/>
        <polygon id="s_44" points="637.53 342.47 628.68 337.36 618.3 337.36 618.3 354.77 639.74 356.77 637.53 342.47" class="cls-3"/>
        <polygon id="s_45" points="325.27 149.79 327.4 184.51 372.34 204.09 386.64 164.25 325.27 149.79" class="cls-3"/>
        <polygon id="s_46" points="415.57 170.72 386.64 164.25 372.34 204.09 402.13 215.49 415.57 170.72" class="cls-3"/>
        <polygon id="s_47" points="306.98 149.62 302.55 180.43 256.08 174.04 259.32 148.25 306.98 149.62" class="cls-3"/>
        <polygon id="s_48" points="241.96 147.71 239.91 172.77 193.28 166.64 190.04 157.28 191.06 146.21 241.96 147.71" class="cls-3"/>
        <path id="s_49" d="M235.28,254.06a34.7,34.7,0,0,1,68.25,0Z" class="cls-3" transform="translate(-66.51 -32.96)"/>
        <line x1="202.89" x2="202.3" y1="221.11" y2="192.68" class="cls-3"/>
        <polygon id="s_50" points="134.3 136 108 148.51 121.15 175.32 148.34 161.79 134.3 136" class="cls-3"/>
        <polygon id="s_51" points="0.51 190.13 42.89 190.13 43.79 259.32 0.51 259.32 0.51 190.13" class="cls-3"/>
        <polygon id="s_52" points="44.68 328.51 43.79 259.32 0.51 259.32 1.79 328.51 44.68 328.51" class="cls-3"/>
    </g>
</svg>
