<?xml version="1.0" encoding="utf-8"?>
<!-- Generator: Adobe Illustrator 23.0.3, SVG Export Plug-In . SVG Version: 6.00 Build 0)  -->
<svg version="1.1" id="Calque_1" xmlns="http://www.w3.org/2000/svg" xmlns:xlink="http://www.w3.org/1999/xlink" x="0px" y="0px"
	 viewBox="0 0 729.2 419" style="enable-background:new 0 0 729.2 419;" xml:space="preserve">
<style type="text/css">
	.st0{fill:#E6E6E6;}
	.st1{fill:#FFFFFF;}
	.st2{fill:#666666;stroke:#FFFFFF;stroke-miterlimit:10;}
</style>
<title>etage</title>
<g id="base">
	<polygon class="st0" points="253.8,3.8 253.8,86.8 410,90.6 410,149.6 252,139.9 249.4,182.3 246.9,209.4 244.1,251.2 400.4,262 
		414.6,264.3 528.5,294.1 528.5,292.1 553.3,299.5 561.5,262.7 590,263.8 618.1,260.4 629.6,251.8 653.4,239.5 651.1,379.4 
		628.9,379.4 628.1,413.9 706.5,419 729.2,355.2 699.3,327.3 698.3,304.6 709.5,303.1 711.3,263.2 697.5,195.3 644.9,202.2 
		634.2,168.3 676.6,146 671.8,138.4 660.3,135.8 663.6,124.9 639.8,86 615.3,97.3 596.9,73.8 630.6,67.4 616.5,0 599.9,9.7 
		427.7,41.1 296.4,35.5 296.2,3.6 	"/>
	<polygon class="st0" points="10.1,36.3 0.5,301.9 59.1,304.6 68.9,38.4 	"/>
	<polygon class="st1" points="579.6,66.9 433.3,91.7 432,151.9 574.2,187.7 579.6,143 568.9,118.7 588.5,109 	"/>
</g>
<g id="landmarks-salles_e">
	<polygon id="s_54" class="st2" points="253.8,58.1 253.8,86.8 288.2,87.9 288.2,47.9 267.4,47.1 	"/>
	<path class="st2" d="M271.8,108.7"/>
	<polygon id="s_55" class="st2" points="329.5,48.1 288.2,48.9 288.2,87.9 329.5,88.7 	"/>
	<polygon id="s_56" class="st2" points="368.5,49.1 329.5,48.1 329.5,88.7 367.5,89.3 	"/>
	<polygon id="s_57" class="st2" points="409.5,55.9 388.4,49.8 368.5,49.1 367.5,89.3 410,90.6 	"/>
	<polygon id="s_58" class="st2" points="430.8,58.8 432,92 464.7,86.4 458.9,54 	"/>
	<polygon id="s_59" class="st2" points="496.2,47.6 458.9,54 464.7,86.4 502.5,79.8 	"/>
	<polygon id="s_60" class="st2" points="540.3,40.6 496.2,47.6 502.5,79.8 546,73 	"/>
	<polygon id="s_61" class="st2" points="574.8,42.8 564.6,36 540.3,40.6 546,73 581.6,67 	"/>
	<polygon id="s_62" class="st2" points="624.5,39.7 602.9,42.6 597.8,60.2 596.9,73.8 630.6,67.4 	"/>
	<polygon id="s_63" class="st2" points="620.9,24.6 624.5,39.7 602.9,42.6 606.8,33.6 611.1,27.7 	"/>
	<polygon id="s_64" class="st2" points="639.1,86.4 615,99 620.8,115 647.2,99 	"/>
	<polygon id="s_65" class="st2" points="657.5,115 647.2,99 620.8,115 625.9,134.4 	"/>
	<polygon id="s_66" class="st2" points="660.3,135.8 663.6,124.9 657.5,115 625.9,134.4 631.1,152.4 	"/>
	<polygon id="s_67" class="st2" points="676.6,146 671.8,138.4 660.3,135.8 631.1,152.4 635.2,166.7 	"/>
	<polygon id="s_68" class="st2" points="588.5,110.2 568.9,118.7 579.6,143 601.9,129.8 	"/>
	<polygon id="s_69" class="st2" points="616.7,175.6 599.3,182.7 579.6,143 601.9,129.8 609.9,144.9 616.7,166.7 	"/>
	<polygon id="s_70" class="st2" points="583.8,234.1 581.3,245.9 603.9,244.2 609.2,241.1 612.1,236 615.8,230.7 618.4,225.1 620.8,219.8 
		620.8,216.8 620.8,210.8 619.1,207.9 619.2,203.5 619.2,199.2 618.6,194.6 617.9,189.2 617.5,185.5 616.7,180.5 616.7,177.8 
		616.7,174.6 598.1,182.7 579.9,143.7 574.2,187.7 549.3,180.7 539.8,223.2 	"/>
	<polygon id="s_71" class="st2" points="653.6,261.7 710.3,262.7 710.3,304.9 653.6,302.6 	"/>
	<polygon id="s_72" class="st2" points="513.2,171.8 501.8,213.5 539.8,223.2 549.3,180.7 	"/>
	<polygon id="s_73" class="st2" points="479.8,163.8 468.6,204.9 501.8,213.5 513.2,171.8 	"/>
	<polygon id="s_74" class="st2" points="447,155.3 435.4,196.3 468.6,204.9 479.8,163.8 	"/>
	<polygon id="s_75" class="st2" points="432,151.9 429.3,180.1 439.5,181.9 447,155.3 	"/>
	<polygon id="s_76" class="st2" points="252,139.9 249.4,182.3 287.8,184.9 290.4,142.4 	"/>
	<polygon id="s_77" class="st2" points="331.4,145.1 290.4,143.2 288.7,186.3 328.7,187.8 	"/>
	<polygon id="s_78" class="st2" points="372.8,147.3 331.4,145.1 328.7,187.8 369.9,190.7 	"/>
	<polygon id="s_79" class="st2" points="409,149.9 405.8,193.1 369.9,190.7 372.8,147.3 	"/>
	<polygon id="s_80" class="st2" points="247.3,208.6 244.1,251.2 283.1,253.2 285.6,211.3 	"/>
	<polygon id="s_81" class="st2" points="326.8,213.2 323.9,255.9 283.1,253.2 285.6,211.3 	"/>
	<polygon id="s_82" class="st2" points="368.2,215.6 365.3,259 323.9,255.9 326.8,213.2 	"/>
	<polygon id="s_83" class="st2" points="403.6,218.3 400.4,262 365.3,259 368.2,215.6 	"/>
	<polygon id="s_84" class="st2" points="427.2,221.2 414.6,264.3 453.3,274 465.4,231.8 	"/>
	<polygon id="s_85" class="st2" points="503.5,242.1 490.9,284.3 453.3,274 465.4,231.8 	"/>
	<polygon id="s_86" class="st2" points="539.8,252.3 528.5,294.1 490.9,284.3 503.5,242.1 	"/>
	<polygon id="s_87" class="st2" points="10.1,36.3 7,124.5 64.9,126.9 68.9,38.4 	"/>
	<polygon id="s_88" class="st2" points="3.8,211.3 62.5,213.2 64.9,126.9 7,124.5 	"/>
	<polygon id="s_89" class="st2" points="59.1,304.6 0.5,301.9 3.8,211.3 62.5,213.2 	"/>
</g>
<path id="nopointer_x5F_wc" class="st1" d="M613.6,29.7c-0.5,0-0.9,0.4-0.9,0.9c0,0.5,0.4,0.9,0.9,0.9s0.9-0.4,0.9-0.9
	C614.5,30.1,614.1,29.7,613.6,29.7z M617.4,29.7c-0.5,0-0.9,0.4-0.9,0.9c0,0.5,0.4,0.9,0.9,0.9c0.5,0,0.9-0.4,0.9-0.9
	C618.3,30.1,617.9,29.7,617.4,29.7z M618.3,30.9c0,0,0,0.4,0.2,0.7c0.3,0.3,0.7,0.2,0.7,0.2s0-0.4-0.2-0.7
	C618.8,30.9,618.3,30.9,618.3,30.9z M613.3,32.2c-0.5,0-0.9,0.4-0.9,0.9V35c0,0.2,0.1,0.3,0.3,0.3c0,0,0,0,0,0v1.9
	c0,0.2,0.1,0.3,0.3,0.3c0.2,0,0.3-0.1,0.3-0.3l0.1-2.1c0-0.1,0.1-0.1,0.2-0.1c0.1,0,0.2,0.1,0.2,0.1l0.1,2.1c0,0.2,0.2,0.3,0.3,0.3
	c0.2,0,0.3-0.1,0.3-0.3v-1.9c0.2,0,0.3-0.1,0.3-0.3c0,0,0,0,0,0v-1.9c0-0.5-0.4-0.9-0.9-0.9H613.3z M617.4,32.2
	c-0.5,0-1,0.4-1.1,0.9h0l-0.5,2.2c0,0.2,0.1,0.3,0.2,0.4c0,0,0,0,0.1,0c0,0,0,0,0,0h0.3v1.6c0,0.2,0.1,0.3,0.3,0.3
	c0.2,0,0.3-0.1,0.3-0.3l0.1-1.6h0.4l0.1,1.6c0,0.2,0.2,0.3,0.3,0.3c0.2,0,0.3-0.1,0.3-0.3v-1.6h0.3h0c0.2,0,0.3-0.1,0.3-0.3
	c0,0,0,0,0-0.1l-0.5-2.2h0C618.3,32.6,617.9,32.2,617.4,32.2L617.4,32.2z"/>
<path id="nopointer_x5F_wc_1_" class="st1" d="M434.3,162.9c-0.5,0-0.9,0.4-0.9,0.9c0,0.5,0.4,0.9,0.9,0.9s0.9-0.4,0.9-0.9
	C435.2,163.4,434.8,162.9,434.3,162.9z M438.1,162.9c-0.5,0-0.9,0.4-0.9,0.9c0,0.5,0.4,0.9,0.9,0.9c0.5,0,0.9-0.4,0.9-0.9
	C439,163.4,438.6,162.9,438.1,162.9z M439,164.2c0,0,0,0.4,0.2,0.7s0.7,0.2,0.7,0.2s0-0.4-0.2-0.7C439.5,164.2,439,164.2,439,164.2z
	 M434,165.5c-0.5,0-0.9,0.4-0.9,0.9v1.9c0,0.2,0.1,0.3,0.3,0.3c0,0,0,0,0,0v1.9c0,0.2,0.1,0.3,0.3,0.3c0.2,0,0.3-0.1,0.3-0.3
	l0.1-2.1c0-0.1,0.1-0.1,0.2-0.1c0.1,0,0.2,0.1,0.2,0.1l0.1,2.1c0,0.2,0.2,0.3,0.3,0.3c0.2,0,0.3-0.1,0.3-0.3v-1.9
	c0.2,0,0.3-0.1,0.3-0.3c0,0,0,0,0,0v-1.9c0-0.5-0.4-0.9-0.9-0.9H434z M438.1,165.5c-0.5,0-1,0.4-1.1,0.9h0l-0.5,2.2
	c0,0.2,0.1,0.3,0.2,0.4c0,0,0,0,0.1,0c0,0,0,0,0,0h0.3v1.6c0,0.2,0.1,0.3,0.3,0.3c0.2,0,0.3-0.1,0.3-0.3l0.1-1.6h0.4l0.1,1.6
	c0,0.2,0.2,0.3,0.3,0.3c0.2,0,0.3-0.1,0.3-0.3v-1.6h0.3h0c0.2,0,0.3-0.1,0.3-0.3c0,0,0,0,0-0.1l-0.5-2.2h0
	C439.1,165.8,438.6,165.5,438.1,165.5L438.1,165.5z"/>
</svg>
