<?xml version="1.0" encoding="utf-8"?>
<!-- Generator: Adobe Illustrator 23.0.3, SVG Export Plug-In . SVG Version: 6.00 Build 0)  -->
<svg version="1.1" id="Calque_1" xmlns="http://www.w3.org/2000/svg" xmlns:xlink="http://www.w3.org/1999/xlink" x="0px" y="0px"
	 viewBox="0 0 724.7 455.9" style="enable-background:new 0 0 724.7 455.9;" xml:space="preserve">
<style type="text/css">
	.st0{fill:#E6E6E6;}
	.st1{fill:#FFFFFF;}
	.st2{fill:#666666;stroke:#FFFFFF;stroke-miterlimit:10;}
	.st3{fill:none;stroke:#FFFFFF;stroke-miterlimit:10;}
</style>
<title>RDC</title>
<g id="base">
	<path class="st0" d="M4.8,2.7v74l184.6-1.8l1.2,31l115.5-0.9l0.9,44.6l-115.9-3.4l-1,11.1l3.2,9.4v27.6l-6.7,1.8l-6.1,2.9l-6.3,6.1
		l-2.9,5.3l-2.5,8v2.7H237l1,3.8l46,6.6l17.9,2.7l10.6,7l24.8,16.9l18.9,12.9l20.1,9.4l22.3,9.5l1.7,1.7l-31.8,33.7l-12.8,40.3
		l18.5,49.5l12.6,9.4l40.3,23.5l27.9,3.9l64.9,3.4l-12.8-110.7l37.3,3.2l95.3,8.9l28.4,89l43.4-14.3l-14.8-46.6l27.9-9.2l-0.3-1.5
		c-2.1-12.8-7.5-33.3-23-52.3c-39.3-48.2-106.2-41.4-112.3-40.7l0.7,31.8l-25.2-3.1l-0.2-33.4l-36.9-0.2l-1.5-17.9l-2-26l11.9-0.3
		l-13.1-55.9l-38.3,7.3l-8.2-26.4l30.3-18l-3.4-5.1l-9.2-1.9l1.9-8.9l-3.9-6.5l-14.5-22.8l-17.7,11.1L446,87.4l0.8-1.7l23.3-4.6
		l-16.5-68.8L313.1,40.5l-92.4,0.8L220,0L4.8,2.7z"/>
	<polygon class="st0" points="0.5,190.1 1.8,328.5 44.7,328.5 42.9,190.1 	"/>
	<polygon class="st1" points="432,83.2 324.3,104.3 325.3,149.8 432,174 434,140.9 426.1,122.2 440.4,114.3 	"/>
	<polygon class="st0" points="134.3,136 108,148.5 121.2,175.3 148.3,161.8 	"/>
</g>
<g id="landmarks-salles">
	<polygon id="s_0" class="st2" points="4.8,2.7 36.8,2.4 36.8,33.9 4.8,33.9 	"/>
	<polygon id="s_1" class="st2" points="55.1,2.4 36.8,2.4 36.8,33.9 55.1,33.2 	"/>
	<polygon id="s_2" class="st2" points="87.1,1.9 55.1,2.4 55.1,33.2 87.1,33.2 	"/>
	<rect id="s_3" x="87.1" y="1.9" class="st2" width="18.2" height="31.3"/>
	<polygon id="s_4" class="st2" points="137.6,1.4 105.3,1.9 105.3,33.2 138.5,32.5 	"/>
	<polygon id="s_5" class="st2" points="157.2,0.9 137.6,1.4 138.5,32.5 158,32.5 	"/>
	<polygon id="s_6" class="st2" points="189.7,0.5 157.2,0.9 158,32.5 189.7,32.5 	"/>
	<polygon id="s_7" class="st2" points="4.8,76.8 37.9,76.3 37.9,45.6 4.8,45.6 	"/>
	<rect id="s_8" x="37.9" y="45.6" class="st2" width="32" height="30.6"/>
	<polygon id="s_9" class="st2" points="83.2,54.1 69.9,45.6 69.9,76.3 83.2,76 	"/>
	<polygon id="s_10" class="st2" points="111.4,75.4 101.9,75.4 97.1,56.5 102,44.6 111.4,44.6 	"/>
	<polygon id="s_11" class="st2" points="142.9,44.6 111.4,44.6 111.4,75.4 142.9,75.4 	"/>
	<polygon id="s_12" class="st2" points="157.2,44.6 142.9,44.6 142.9,75.4 158,74.6 	"/>
	<polygon id="s_13" class="st2" points="188,44.6 157.2,44.6 158,74.6 188.7,74.6 	"/>
	<polygon id="s_14" class="st2" points="220.7,41.4 259.5,40.9 259.5,65 220.7,65 	"/>
	<polygon id="s_15" class="st2" points="268,41.2 268,64.5 306,64.5 306,40.6 	"/>
	<rect id="s_16" x="216.4" y="74.6" class="st2" width="25.5" height="30.8"/>
	<polygon id="s_17" class="st2" points="283.5,73.5 242,74.6 242,105.4 283.5,105.2 	"/>
	<polygon id="s_18" class="st2" points="313.1,40.5 354.4,32.2 360.8,57.2 318.9,66.4 	"/>
	<polygon id="s_19" class="st2" points="377.3,27.2 354.4,32.2 360.8,57.2 383.1,52.9 	"/>
	<polygon id="s_20" class="st2" points="421.5,18.7 377.3,27.2 383.1,52.9 426.6,43.7 	"/>
	<polygon id="s_21" class="st2" points="453.2,11.6 452.1,11.8 441.3,14.3 443.7,23.5 455.2,20.9 	"/>
	<path id="s_22" class="st2" d="M446.7,35.2c-1.8-0.8-8.5-4-11.6-11.4c-1-2.5-1.6-5.3-1.5-8l7.7-1.5L446.7,35.2z"/>
	<polygon id="s_23" class="st2" points="460,39 452.5,37.8 446.7,35.2 443.7,23.5 455.2,20.9 	"/>
	<polygon id="s_24" class="st2" points="325,79.3 346,74.6 351.6,99.1 330.1,103.2 	"/>
	<polygon id="s_25" class="st2" points="373.9,68.8 346,74.6 351.6,99.1 379.3,93.1 	"/>
	<polygon id="s_26" class="st2" points="382.3,67.4 419.8,59.1 428.5,64.5 433.6,82 387.1,91.4 	"/>
	<polygon id="s_27" class="st2" points="464.8,60.3 448.3,63.7 445.9,74.6 446.4,86.6 470.2,81 	"/>
	<polygon id="s_28" class="st2" points="477.4,94.1 459.7,105.2 463.7,117.6 483.8,105.2 	"/>
	<polygon id="s_29" class="st2" points="491,116.3 468.5,131.4 463.7,117.6 483.8,105.2 	"/>
	<polygon id="s_30" class="st2" points="493.9,132.3 472.8,146 468.5,131.4 491,116.3 495.7,123.4 	"/>
	<polygon id="s_31" class="st2" points="476.2,156.6 472.8,146 493.9,132.3 503.1,134.1 506.5,139.2 	"/>
	<polygon id="s_32" class="st2" points="440.4,114.3 426.1,122.2 434,140.9 430.9,173.8 415.6,170.7 402.1,215.5 409.8,218.4 
		437.7,219.4 455.2,216.7 462.2,208.2 467.1,195.4 464.6,180.9 462.2,155.8 457.1,142.3 	"/>
	<polygon id="s_33" class="st2" points="497.4,196.1 526,190.5 531.2,214.8 503.7,220.3 	"/>
	<polygon id="s_34" class="st2" points="492.9,222.1 531.2,214.8 534.4,226.7 506.5,227.7 494.9,230 	"/>
	<path id="s_35" class="st2" d="M564.5,310c-2.2,0.1-15.6,0.8-26.4-9.5c-6.5-6.3-10.3-14.9-10.7-24l36.9,0.2L564.5,310z"/>
	<polygon id="s_36" class="st2" points="485,366 457.3,432.7 454.2,451.4 519.9,455.3 509.7,367.5 	"/>
	<path id="s_37" class="st2" d="M431.8,334.1c-4.9-8.1-7.1-17.5-6.3-26.9l-25.2-15.7l-31.8,33.7l-12.8,40.3l19.2,52.3l17.4-15.5
		L431.8,334.1z"/>
	<polygon id="s_38" class="st2" points="514.3,319.8 514.3,334.5 527.4,335.7 529.5,321.2 	"/>
	<polygon id="s_39" class="st2" points="542,347.8 526.7,346 529.5,321.2 540.2,322.2 	"/>
	<polygon id="s_40" class="st2" points="558.9,324.3 555.2,348.4 572.3,350.5 568.3,325.1 	"/>
	<polygon id="s_41" class="st2" points="590.2,326 568.3,325.1 572.3,350.5 584.1,351.8 584.9,333.3 589.4,333.6 	"/>
	<polygon id="s_42" class="st2" points="599.6,334.5 584.9,333.3 584.1,351.8 599.6,353 	"/>
	<polygon id="s_43" class="st2" points="618.3,337.4 599.6,334.5 599.6,353 618.3,354.8 	"/>
	<polygon id="s_44" class="st2" points="637.5,342.5 628.7,337.4 618.3,337.4 618.3,354.8 639.7,356.8 	"/>
	<polygon id="s_45" class="st2" points="325.3,149.8 327.4,184.5 372.3,204.1 386.6,164.3 	"/>
	<polygon id="s_46" class="st2" points="415.6,170.7 386.6,164.3 372.3,204.1 402.1,215.5 	"/>
	<polygon id="s_47" class="st2" points="307,149.6 302.5,180.4 256.1,174 259.3,148.3 	"/>
	<polygon id="s_48" class="st2" points="242,147.7 239.9,172.8 193.3,166.6 190,157.3 191.1,146.2 	"/>
	<path id="s_49" class="st2" d="M168.8,221.1c3.5-18.8,21.6-31.3,40.4-27.8c14.2,2.6,25.2,13.7,27.8,27.8H168.8z"/>
	<line class="st3" x1="202.9" y1="221.1" x2="202.3" y2="192.7"/>
	<polygon id="s_50" class="st2" points="134.3,136 108,148.5 121.2,175.3 148.3,161.8 	"/>
	<polygon id="s_51" class="st2" points="0.5,190.1 42.9,190.1 43.8,259.3 0.5,259.3 	"/>
	<polygon id="s_52" class="st2" points="44.7,328.5 43.8,259.3 0.5,259.3 1.8,328.5 	"/>
	<path class="st2" d="M212.7,227.9"/>
	<path class="st2" d="M192.4,251"/>
	<path id="s_53" class="st2" d="M168.9,220.2c0.3-2.3,2.1-13,12.6-20.7c8.8-6.5,18.4-6.9,21.4-6.9v28.6L168.9,220.2z"/>
</g>
<path id="nopointer_x5F_wc" class="st1" d="M74.5,58.6c-0.5,0-1,0.4-1,1s0.4,1,1,1c0.5,0,1-0.4,1-1S75,58.6,74.5,58.6z M78.3,58.6
	c-0.5,0-1,0.4-1,1s0.4,1,1,1c0.5,0,1-0.4,1-1S78.8,58.6,78.3,58.6z M79.3,59.9c0,0,0,0.5,0.2,0.7s0.7,0.2,0.7,0.2s0-0.5-0.2-0.7
	C79.7,59.9,79.3,59.9,79.3,59.9z M74.1,61.2c-0.5,0-1,0.4-1,1v1.9c0,0.2,0.1,0.3,0.3,0.3c0,0,0,0,0,0v1.9c0,0.2,0.1,0.3,0.3,0.3
	c0.2,0,0.3-0.1,0.3-0.3l0.1-2.1c0-0.1,0.1-0.1,0.2-0.1s0.2,0.1,0.2,0.1l0.1,2.1c0,0.2,0.2,0.3,0.3,0.3c0.2,0,0.3-0.1,0.3-0.3v-1.9
	c0.2,0,0.3-0.1,0.3-0.3c0,0,0,0,0,0v-1.9c0-0.5-0.4-1-1-1H74.1z M78.3,61.2c-0.5,0-1,0.4-1.1,0.9h0l-0.5,2.3c0,0.2,0.1,0.3,0.2,0.4
	c0,0,0,0,0.1,0c0,0,0,0,0,0h0.3v1.6c0,0.2,0.1,0.3,0.3,0.3c0.2,0,0.3-0.1,0.3-0.3l0.1-1.6h0.4l0.1,1.6c0,0.2,0.2,0.3,0.3,0.3
	c0.2,0,0.3-0.1,0.3-0.3v-1.6h0.3h0c0.2,0,0.3-0.1,0.3-0.3c0,0,0,0,0-0.1l-0.5-2.3h0C79.3,61.6,78.8,61.2,78.3,61.2L78.3,61.2z"/>
<path id="nopointer_x5F_wc_1_" class="st1" d="M438,19.7c-0.4,0-0.7,0.3-0.7,0.7c0,0.4,0.3,0.7,0.7,0.7c0.4,0,0.7-0.3,0.7-0.7
	C438.7,20,438.4,19.7,438,19.7z M440.6,19.7c-0.4,0-0.7,0.3-0.7,0.7c0,0.4,0.3,0.7,0.7,0.7s0.7-0.3,0.7-0.7
	C441.3,20,441,19.7,440.6,19.7z M441.3,20.6c0,0,0,0.3,0.2,0.5s0.5,0.2,0.5,0.2s0-0.3-0.2-0.5C441.6,20.6,441.3,20.6,441.3,20.6z
	 M437.8,21.5c-0.4,0-0.7,0.3-0.7,0.7v1.3c0,0.1,0.1,0.2,0.2,0.2c0,0,0,0,0,0V25c0,0.1,0.1,0.2,0.2,0.2c0.1,0,0.2-0.1,0.2-0.2
	l0.1-1.4c0-0.1,0.1-0.1,0.1-0.1s0.1,0,0.1,0.1l0.1,1.4c0,0.1,0.1,0.2,0.2,0.2c0.1,0,0.2-0.1,0.2-0.2v-1.3c0.1,0,0.2-0.1,0.2-0.2
	c0,0,0,0,0,0v-1.3c0-0.4-0.3-0.7-0.7-0.7H437.8z M440.6,21.5c-0.4,0-0.7,0.2-0.7,0.6h0l-0.3,1.5c0,0.1,0,0.2,0.2,0.3c0,0,0,0,0,0
	c0,0,0,0,0,0h0.2V25c0,0.1,0.1,0.2,0.2,0.2c0.1,0,0.2-0.1,0.2-0.2l0.1-1.1h0.3l0.1,1.1c0,0.1,0.1,0.2,0.2,0.2c0.1,0,0.2-0.1,0.2-0.2
	v-1.1h0.2h0c0.1,0,0.2-0.1,0.2-0.2c0,0,0,0,0,0l-0.3-1.5h0C441.3,21.7,441,21.5,440.6,21.5L440.6,21.5z"/>
<path id="nopointer_x5F_wc_2_" class="st1" d="M519.6,323.7c-0.5,0-1,0.4-1,1c0,0.5,0.4,1,1,1c0.5,0,1-0.4,1-1
	C520.6,324.2,520.2,323.7,519.6,323.7z M523.5,323.7c-0.5,0-1,0.4-1,1c0,0.5,0.4,1,1,1c0.5,0,1-0.4,1-1
	C524.4,324.2,524,323.7,523.5,323.7z M524.4,325c0,0,0,0.5,0.2,0.7s0.7,0.2,0.7,0.2s0-0.5-0.2-0.7C524.9,325,524.4,325,524.4,325z
	 M519.3,326.3c-0.5,0-1,0.4-1,1v1.9c0,0.2,0.1,0.3,0.3,0.3c0,0,0,0,0,0v1.9c0,0.2,0.1,0.3,0.3,0.3c0.2,0,0.3-0.1,0.3-0.3l0.1-2.1
	c0-0.1,0.1-0.1,0.2-0.1s0.2,0.1,0.2,0.1l0.1,2.1c0,0.2,0.2,0.3,0.3,0.3c0.2,0,0.3-0.1,0.3-0.3v-1.9c0.2,0,0.3-0.1,0.3-0.3
	c0,0,0,0,0,0v-1.9c0-0.5-0.4-1-1-1H519.3z M523.5,326.3c-0.5,0-1,0.4-1.1,0.9h0l-0.5,2.3c0,0.2,0.1,0.3,0.2,0.4c0,0,0,0,0.1,0
	c0,0,0,0,0,0h0.3v1.6c0,0.2,0.1,0.3,0.3,0.3c0.2,0,0.3-0.1,0.3-0.3l0.1-1.6h0.4l0.1,1.6c0,0.2,0.2,0.3,0.3,0.3
	c0.2,0,0.3-0.1,0.3-0.3v-1.6h0.3h0c0.2,0,0.3-0.1,0.3-0.3c0,0,0,0,0-0.1l-0.5-2.3h0C524.5,326.7,524,326.3,523.5,326.3L523.5,326.3z
	"/>
<path id="nopointer_x5F_wc_3_" class="st1" d="M215.7,205.2c-0.5,0-1,0.4-1,1s0.4,1,1,1s1-0.4,1-1S216.3,205.2,215.7,205.2z
	 M219.6,205.2c-0.5,0-1,0.4-1,1s0.4,1,1,1s1-0.4,1-1S220.1,205.2,219.6,205.2z M220.5,206.5c0,0,0,0.5,0.2,0.7
	c0.3,0.3,0.7,0.2,0.7,0.2s0-0.5-0.2-0.7C221,206.5,220.5,206.5,220.5,206.5z M215.4,207.8c-0.5,0-1,0.4-1,1v1.9
	c0,0.2,0.1,0.3,0.3,0.3c0,0,0,0,0,0v1.9c0,0.2,0.1,0.3,0.3,0.3c0.2,0,0.3-0.1,0.3-0.3l0.1-2.1c0-0.1,0.1-0.1,0.2-0.1
	c0.1,0,0.2,0.1,0.2,0.1l0.1,2.1c0,0.2,0.2,0.3,0.3,0.3c0.2,0,0.3-0.1,0.3-0.3V211c0.2,0,0.3-0.1,0.3-0.3c0,0,0,0,0,0v-1.9
	c0-0.5-0.4-1-1-1H215.4z M219.6,207.8c-0.5,0-1,0.4-1.1,0.9h0l-0.5,2.3c0,0.2,0.1,0.3,0.2,0.4c0,0,0,0,0.1,0c0,0,0,0,0,0h0.3v1.6
	c0,0.2,0.1,0.3,0.3,0.3c0.2,0,0.3-0.1,0.3-0.3l0.1-1.6h0.4l0.1,1.6c0,0.2,0.2,0.3,0.3,0.3c0.2,0,0.3-0.1,0.3-0.3v-1.6h0.3h0
	c0.2,0,0.3-0.1,0.3-0.3c0,0,0,0,0-0.1l-0.5-2.3h0C220.5,208.2,220.1,207.8,219.6,207.8L219.6,207.8z"/>
<path class="st2" d="M152.1,225c4.6-0.2,9.3-0.4,13.9-0.6"/>
<g transform="translate(0.000000,344.000000) scale(0.100000,-0.100000)">
	<path id="nopointer_x5F_infirmerie" class="st1" d="M5136.3,1431.6c-1.9-0.6-3.8-2.2-4.8-4.1l-1.1-1.9l-0.1-13.2l-0.1-13.2
		l-13.2-0.1l-13.2-0.1l-1.9-1.1c-2-1.1-3.5-3-4.1-5c-0.2-0.7-0.4-3.7-0.4-6.7c0-5,0.1-5.6,0.9-7.3c1-2.2,2-3.2,4.2-4.2
		c1.6-0.7,2.3-0.8,14.7-0.8h13l0.1-13.2c0.1-13,0.1-13.3,0.9-15c0.5-0.9,1.4-2.2,2-2.7c2.3-1.9,3.2-2.2,9.7-2.2
		c5.5,0,6.2,0.1,7.5,0.8c2,1.1,4,3.4,4.5,5.1c0.3,0.8,0.4,6.3,0.4,14.3v12.8h12.9c7.9,0,13.4,0.1,14.2,0.4c1.7,0.5,4,2.5,5.1,4.5
		c0.7,1.3,0.8,2,0.8,7.5c0,5.6-0.1,6.2-0.8,7.7c-0.5,0.9-1.4,2.2-2,2.7c-2.5,2.1-2.6,2.2-16.9,2.3l-13.2,0.1v13
		c0,12.9,0,13-0.9,14.8c-1,2.2-2,3.2-4.2,4.2c-1.4,0.7-2.3,0.7-7.3,0.7C5139.9,1431.9,5136.9,1431.7,5136.3,1431.6z"/>
</g>
</svg>
